<svg width="50" height="50" viewBox="0 0 50 50" fill="none" xmlns="http://www.w3.org/2000/svg">
<path fill-rule="evenodd" clip-rule="evenodd" d="M0.557434 18.8799V30.3224H5.46156V40.1306H7.09576V30.3224H19.6696L31.6087 39.9835V8.92603L19.5945 18.8799H0.557434ZM2.19317 28.6866V20.5141H8.73149V28.6866H2.19317ZM20.6369 20.1385L29.973 12.4029V36.5572L20.2475 28.6882H10.3642V20.5156H20.1816L20.6354 20.1401L20.6369 20.1385Z" fill="#333333"/>
<path fill-rule="evenodd" clip-rule="evenodd" d="M42.9209 10.3669L41.745 11.5428C45.5699 14.5368 48.0427 19.1849 48.0427 24.4079C48.0427 29.7704 45.435 34.5243 41.4338 37.506L42.6173 38.6895C46.9082 35.4042 49.6784 30.2303 49.6784 24.4079C49.6784 18.7265 47.0386 13.6614 42.9224 10.3669L42.9209 10.3669Z" fill="#333333"/>
<path fill-rule="evenodd" clip-rule="evenodd" d="M37.6687 15.6367L36.4807 16.8248C39.004 18.4191 40.6888 21.2246 40.6888 24.424C40.6888 27.7644 38.8538 30.6787 36.1419 32.2286L37.333 33.4197C40.327 31.5403 42.3245 28.2197 42.3245 24.424C42.3245 20.7693 40.4788 17.5484 37.6703 15.6367L37.6687 15.6367Z" fill="#333333"/>
</svg>
